<?xml version="1.0" encoding="UTF-8" standalone="no"?>
<svg
   xmlns:dc="http://purl.org/dc/elements/1.1/"
   xmlns:cc="http://creativecommons.org/ns#"
   xmlns:rdf="http://www.w3.org/1999/02/22-rdf-syntax-ns#"
   xmlns:svg="http://www.w3.org/2000/svg"
   xmlns="http://www.w3.org/2000/svg"
   xmlns:xlink="http://www.w3.org/1999/xlink"
   xmlns:sodipodi="http://sodipodi.sourceforge.net/DTD/sodipodi-0.dtd"
   xmlns:inkscape="http://www.inkscape.org/namespaces/inkscape"
   viewBox="0 0 308.90109 274.26697"
   id="svg2"
   version="1.1"
   inkscape:version="0.48.4 r9939"
   width="100%"
   height="100%"
   sodipodi:docname="books-42701.svg">
  <metadata
     id="metadata98">
    <rdf:RDF>
      <cc:Work
         rdf:about="">
        <dc:format>image/svg+xml</dc:format>
        <dc:type
           rdf:resource="http://purl.org/dc/dcmitype/StillImage" />
        <dc:title></dc:title>
      </cc:Work>
    </rdf:RDF>
  </metadata>
  <sodipodi:namedview
     pagecolor="#ffffff"
     bordercolor="#666666"
     borderopacity="1"
     objecttolerance="10"
     gridtolerance="10"
     guidetolerance="10"
     inkscape:pageopacity="0"
     inkscape:pageshadow="2"
     inkscape:window-width="1281"
     inkscape:window-height="843"
     id="namedview96"
     showgrid="false"
     inkscape:zoom="0.86047547"
     inkscape:cx="154.45055"
     inkscape:cy="137.13349"
     inkscape:window-x="75"
     inkscape:window-y="34"
     inkscape:window-maximized="0"
     inkscape:current-layer="svg2" />
  <defs
     id="defs4">
    <linearGradient
       gradientTransform="matrix(.74743,0,0,1.33793,.25,132)"
       gradientUnits="userSpaceOnUse"
       id="lg2"
       x1="277.49091"
       x2="286.71185"
       y1="794.37476"
       y2="776.55743">
      <stop
         offset="0"
         stop-color="#ff0b00"
         id="stop7" />
      <stop
         offset="1"
         stop-color="#a40000"
         id="stop9" />
    </linearGradient>
    <linearGradient
       gradientUnits="userSpaceOnUse"
       id="G1"
       x1="194.2857"
       x2="226.42857">
      <stop
         offset="0"
         stop-color="#fff"
         id="stop12" />
      <stop
         offset="1"
         stop-color="#fff"
         stop-opacity="0"
         id="stop14" />
    </linearGradient>
    <linearGradient
       gradientTransform="matrix(1.95852,0,0,.51059,0,280)"
       gradientUnits="userSpaceOnUse"
       id="G2"
       x1="121.73791"
       x2="116.15244"
       y1="1726.7207"
       y2="1719.0306">
      <stop
         offset="0"
         stop-color="#ebebe2"
         id="stop17" />
      <stop
         offset="1"
         stop-color="#bcbc8e"
         id="stop19" />
    </linearGradient>
    <linearGradient
       gradientTransform="matrix(1.17596,0,0,.85037,0,280)"
       gradientUnits="userSpaceOnUse"
       id="G9"
       spreadMethod="reflect"
       x1="205.99301"
       x2="211.85287"
       y1="1137.6046"
       y2="1082.9424">
      <stop
         offset="0"
         stop-color="#568953"
         id="stop22" />
      <stop
         offset="1"
         stop-color="#1b4c1f"
         id="stop24" />
    </linearGradient>
    <linearGradient
       gradientTransform="matrix(.74743,0,0,1.33793,.25,132)"
       gradientUnits="userSpaceOnUse"
       id="lg1"
       x1="277.49091"
       x2="286.71185"
       xlink:href="#lg2"
       y1="794.37476"
       y2="776.55743">
      <stop
         offset="0"
         stop-color="#fdf064"
         id="stop27" />
      <stop
         offset="1"
         stop-color="#c68200"
         id="stop29" />
    </linearGradient>
    <linearGradient
       gradientTransform="matrix(.88069,0,0,1.13548,0,280)"
       gradientUnits="userSpaceOnUse"
       id="G0"
       x1="296.1369"
       x2="249.34235"
       xlink:href="#G9"
       y1="768.0376"
       y2="819.0932">
      <stop
         offset="0"
         stop-color="#5e0000"
         id="stop32" />
      <stop
         offset="1"
         stop-color="#ae0800"
         id="stop34" />
    </linearGradient>
    <linearGradient
       gradientTransform="matrix(.83406,0,0,1.19896,0,132)"
       id="G5"
       x1="250.28658"
       x2="252.10155"
       xlink:href="#G1"
       y1="868.11609"
       y2="885.64746" />
    <linearGradient
       gradientTransform="matrix(1.93787,0,0,.51603,0,140)"
       id="G6"
       x1="126.13629"
       x2="115.16805"
       xlink:href="#G1"
       y1="1985.5347"
       y2="1976.4353" />
    <linearGradient
       id="G10"
       x1="199.82143"
       x2="286.48836"
       xlink:href="#G2" />
    <linearGradient
       gradientTransform="matrix(1.61504,0,0,.61918,0,140)"
       id="G11"
       x1="143.15617"
       x2="164.79172"
       xlink:href="#G1"
       y1="1700.754"
       y2="1776.3087" />
    <linearGradient
       id="G12"
       x2="0"
       xlink:href="#lg1"
       y1="1225.12502"
       y2="1200.71855" />
    <linearGradient
       gradientTransform="matrix(1.51473,0,0,.66019,0,140)"
       id="G13"
       x1="140.25737"
       x2="157.33363"
       xlink:href="#G2"
       y1="1696.1609"
       y2="1634.5474" />
    <linearGradient
       gradientTransform="matrix(1.51473,0,0,.66019,0,140)"
       id="G14"
       x1="175.50798"
       x2="167.51932"
       xlink:href="#G1"
       y1="1674.547"
       y2="1666.985" />
    <linearGradient
       gradientTransform="matrix(1.51473,0,0,.66019,0,140)"
       id="G15"
       x1="140.18318"
       x2="147.68718"
       xlink:href="#G14"
       y1="1674.4733"
       y2="1669.3435" />
    <linearGradient
       gradientTransform="matrix(.90728,0,0,1.1022,0,140)"
       id="G16"
       spreadMethod="reflect"
       x1="223.66299"
       x2="226.8835"
       xlink:href="#lg1"
       y1="1000.8626"
       y2="985.92932" />
    <linearGradient
       id="G17"
       x1="204.57595"
       x2="204.61812"
       xlink:href="#G1"
       y1="1225.9405"
       y2="1246.99214" />
    <linearGradient
       gradientTransform="matrix(1.36223,0,0,.73409,0,140)"
       id="G18"
       x1="196.64761"
       x2="182.96735"
       xlink:href="#G1"
       y1="1437.2679"
       y2="1493.8745" />
    <linearGradient
       gradientTransform="matrix(.74743,0,0,1.33793,.25,132)"
       gradientUnits="userSpaceOnUse"
       id="lg4"
       x1="277.49091"
       x2="286.71185"
       xlink:href="#lg1"
       y1="794.37476"
       y2="776.55743" />
    <linearGradient
       gradientUnits="userSpaceOnUse"
       id="lg6"
       x1="122.26408"
       x2="116.04919"
       xlink:href="#G1"
       y1="36.73697"
       y2="10.67405" />
    <radialGradient
       cx="169.88104"
       cy="1794.8795"
       gradientTransform="scale(1.45985,.685)"
       gradientUnits="userSpaceOnUse"
       id="G7"
       r="44.52527">
      <stop
         offset="0"
         stop-opacity=".4"
         id="stop50" />
      <stop
         offset="1"
         stop-opacity="0"
         id="stop52" />
    </radialGradient>
  </defs>
  <g
     transform="translate(-5.54944,-22.86811)"
     id="g54"
     inkscape:export-filename="/media/fernando/FER8G-BTRFS/PROGRAMACION/NONGNU.ORG/BSLTL/WEBSITE/bsltl/imagenes/books-42701.png"
     inkscape:export-xdpi="111.88119"
     inkscape:export-ydpi="111.88119">
    <g
       transform="matrix(2.39643,0,0,2.39643,-440.3068,-2735.148)"
       id="g56">
      <path
         d="m202.4685,1162.0158 46.06299-10.63 14.17323,3.5433-3.54331,56.6929-42.51968,17.7166-14.17323-10.6299v-56.6929z"
         fill="url(#G0)"
         stroke="#000"
         id="path58" />
      <path
         d="m203.92858,1163.2143-1e-005,54.2857 12.85714,9.6429 1e-005-58.9286c-6.58381-.0757-11.39985-3.1566-12.85714-5z"
         fill="url(#G1)"
         opacity=".5"
         id="path60" />
      <path
         d="m207.05602,1162.3463c1.91331,1.9404 5.06405,3.7039 9.45223,3.8765l42.76907-11.6889-9.21597-2.217-43.00533,10.0294z"
         fill="url(#G2)"
         id="p2"
         stroke="#000"
         stroke-opacity=".2" />
      <path
         d="m218.75,1168.25 41.25-11.5-.75,24.5c-1.41667,26.8333-31.08333-18.8333-40.5,16.25v-29.25z"
         fill="url(#G3)"
         opacity=".5"
         id="path63" />
      <path
         d="m202.65931,1172.2908c3.53554,3.4177 8.66207,5.9514 13.96537,5.8336l-.17678,20.1526c-4.65512-.4714-11.07801-2.8873-13.61181-6.7175l-.17678-19.2687z"
         fill="url(#lg4)"
         stroke="#000"
         stroke-opacity=".39216"
         id="path65" />
      <path
         d="m203.85355,1175.1036c2.16667,2.5 7.56817,4.7045 11.23484,4.4545 0,3.6666.6594,8.9082-1.13128,10.1135-3.39432,2.2845-5.29029-10.3055-9.95711-3.9216-.16667-3.4167.02022-7.2297-.14645-10.6464z"
         fill="url(#G5)"
         id="path67" />
      <use
         fill="url(#G6)"
         height="274.26697"
         width="308.90109"
         xlink:href="#p2"
         id="use69" />
    </g>
    <path
       d="m313,1229.5c0,16.8447-29.10149,30.5-65,30.5s-65-13.6553-65-30.5 29.10149-30.5 65-30.5 65,13.6553 65,30.5z"
       fill="url(#G7)"
       transform="matrix(1.38221,-.29817,-.0639,1.76948,-86.85293,-1909.54562)"
       id="path71" />
    <g
       transform="matrix(2.39643,0,0,2.39643,-440.3068,-2735.148)"
       id="g73">
      <path
         d="m199.42519,1218.2087 53.14961-21.2599 35.43307,21.2599v14.1732l-53.14961,28.3465-35.43307-28.3465v-14.1732z"
         fill="url(#G9)"
         stroke="#000"
         id="path75" />
      <path
         d="m287.32142,1219.6429-52.5,26.7857-34.64285-25.5357-.35715,8.9285 35.17858,28.0357 52-27.5 .32142-10.7142z"
         fill="url(#G10)"
         id="p10"
         stroke="#000"
         stroke-opacity=".19608"
         stroke-width="2" />
      <path
         d="m203.64675,1218.8282 48.79038-20.1526 32.17335,19.799c-6.24611,3.182-15.54114,7.6317-21.2132,8.4852-25.43527,3.8277-17.32413-13.0813-59.75053-8.1316z"
         fill="url(#G11)"
         opacity=".5"
         id="path78" />
      <path
         d="m252.25,1200.75-15.5,6.5 28.25,17.25 15-6.5-27.75-17.25z"
         fill="url(#G12)"
         stroke="#000"
         stroke-opacity=".4"
         id="path80" />
      <use
         fill="url(#G13)"
         height="274.26697"
         stroke="#000"
         stroke-opacity=".19608"
         width="308.90109"
         xlink:href="#p10"
         id="use82" />
      <path
         d="m287.32142,1219.6429-52.5,26.7857 .17858,11.4285 52-27.5 .32142-10.7142z"
         fill="url(#G14)"
         id="path84" />
      <path
         d="m234.82142,1246.4286-34.64285-25.5357-.35715,8.9285 35.17858,28.0357-.17858-11.4285z"
         fill="url(#G15)"
         id="path86" />
      <path
         d="m203.4845,1227.1864 10.07061,8.3254c-4.22441,1.4055-4.94882,16.8111-14.17323,17.7166 1.5689-5.2717 1.6378-8.2933 1.7067-12.315-2.43111,1.4783-6.36221,2.7067-8.79331,1.685 6.72974-4.8873 7.45949-14.5247 11.18923-15.412z"
         fill="url(#G16)"
         stroke="#000"
         id="path88" />
      <path
         d="m202.49142,1229.5508c-.94292.6387-2.08557,4.4212-3.44086,7.1318 3.18198-3.1231 4.34944,7.152 7.42462,6.8942 1.82177-.1527 2.91988-4.3316 3.84619-6.8084 .85768-2.2933-6.36252-8.2116-7.82995-7.2176z"
         fill="url(#G17)"
         id="path90" />
      <path
         d="m252.125,1202.25-12.5,5.125c11.95833-3.6667 18.75443,5.9428 25.625,11.5 4.75781,3.8483 14.83333-.9583 7.875-4.125l-21-12.5z"
         fill="url(#G18)"
         id="path92" />
    </g>
  </g>
  <path
     d="m50.33881,27.46427 103.01635-24.02475c8.0992,1.92804 12.20048,2.91465 22.12828,5.30289-34.11013,9.32239-68.15321,18.79665-102.88132,27.99456-3.47844-.51953-10.01428-.71861-14.72021-3.78724s-5.00735-3.46046-7.54311-5.48546z"
     fill="url(#lg6)"
     id="path94"
     inkscape:export-xdpi="111.88119"
     inkscape:export-ydpi="111.88119"
     inkscape:export-filename="/media/fernando/FER8G-BTRFS/PROGRAMACION/NONGNU.ORG/BSLTL/WEBSITE/bsltl/imagenes/books-42701.png" />
  <text
     xml:space="preserve"
     style="font-size:44.00000036px;font-style:normal;font-weight:bold;line-height:125%;letter-spacing:0px;word-spacing:0px;fill:#000000;fill-opacity:1;stroke:none;font-family:Comic Sans MS;-inkscape-font-specification:Comic Sans MS Bold;font-stretch:normal;font-variant:normal"
     x="68.566742"
     y="178.97083"
     id="text3037"
     sodipodi:linespacing="125%"
     inkscape:export-filename="/media/fernando/FER8G-BTRFS/PROGRAMACION/NONGNU.ORG/BSLTL/WEBSITE/bsltl/imagenes/books-42701.png"
     inkscape:export-xdpi="111.88119"
     inkscape:export-ydpi="111.88119"><tspan
       sodipodi:role="line"
       id="tspan3039"
       x="68.566742"
       y="178.97083">Books</tspan></text>
</svg>
