<?xml version="1.0" encoding="UTF-8" standalone="no"?>
<!-- Generator: Adobe Illustrator 19.1.0, SVG Export Plug-In . SVG Version: 6.00 Build 0)  -->

<svg
   xmlns:dc="http://purl.org/dc/elements/1.1/"
   xmlns:cc="http://creativecommons.org/ns#"
   xmlns:rdf="http://www.w3.org/1999/02/22-rdf-syntax-ns#"
   xmlns:svg="http://www.w3.org/2000/svg"
   xmlns="http://www.w3.org/2000/svg"
   xmlns:sodipodi="http://sodipodi.sourceforge.net/DTD/sodipodi-0.dtd"
   xmlns:inkscape="http://www.inkscape.org/namespaces/inkscape"
   version="1.1"
   x="0px"
   y="0px"
   viewBox="0 0 64 64"
   style="enable-background:new 0 0 64 64;"
   xml:space="preserve"
   id="svg38"
   sodipodi:docname="Circle-icons-download.svg"
   inkscape:version="0.92.3 (2405546, 2018-03-11)"><metadata
   id="metadata44"><rdf:RDF><cc:Work
       rdf:about=""><dc:format>image/svg+xml</dc:format><dc:type
         rdf:resource="http://purl.org/dc/dcmitype/StillImage" /></cc:Work></rdf:RDF></metadata><defs
   id="defs42">
	
	
	

		
	</defs><sodipodi:namedview
   pagecolor="#ffffff"
   bordercolor="#666666"
   borderopacity="1"
   objecttolerance="10"
   gridtolerance="10"
   guidetolerance="10"
   inkscape:pageopacity="0"
   inkscape:pageshadow="2"
   inkscape:window-width="1513"
   inkscape:window-height="856"
   id="namedview40"
   showgrid="false"
   inkscape:zoom="3.6875"
   inkscape:cx="-29.694915"
   inkscape:cy="32"
   inkscape:window-x="0"
   inkscape:window-y="0"
   inkscape:window-maximized="0"
   inkscape:current-layer="svg38" />
<style
   type="text/css"
   id="style2">
	.st0{fill:#C75C5C;}
	.st1{opacity:0.2;}
	.st2{fill:#231F20;}
	.st3{fill:#FFFFFF;}
	.st4{fill:#8C81D4;}
</style>
<circle
   class="st0"
   cx="32"
   cy="32"
   r="32"
   id="circle4"
   style="fill:#460000;fill-opacity:1" /><g
   style="opacity:0.2"
   id="g16"
   class="st1">
		<g
   id="g10">
			<path
   style="fill:#231f20"
   inkscape:connector-curvature="0"
   id="path8"
   d="m 40,11.2 c 0,0 0,-0.1 0,0 0,-0.2 0,-0.2 0,0 z"
   class="st2" />
		</g>
		<g
   id="g14">
			<path
   style="fill:#231f20"
   inkscape:connector-curvature="0"
   id="path12"
   d="m 24,11.1 c 0,0 0,0.1 0,0 0,-0.1 0,-0.1 0,0 z"
   class="st2" />
		</g>
	</g><g
   id="g34">
		<g
   style="opacity:0.2"
   id="g20"
   class="st1">
			<path
   style="fill:#231f20"
   inkscape:connector-curvature="0"
   id="path18"
   d="M 48,32 C 48,25.5 44.2,20 38.6,17.5 36.9,16.7 36,18 36,19.1 v 8.5 c 0,0.8 0.7,1.4 1.5,1.4 h 3.1 c 1.5,0 1.9,1.1 0.9,2.4 l -7.7,9.8 c -1,1.2 -2.6,1.2 -3.5,0 L 22.6,31.4 C 21.6,30.2 22,29 23.5,29 h 3.1 c 0.8,0 1.5,-0.6 1.5,-1.4 v -8.5 c 0,-1.1 -1.5,-2.1 -2.8,-1.6 0,0 0,0 0,0 -4.3,2 -7.6,5.9 -8.7,10.6 C 11.7,28.9 8,33 8,38 c 0,5.5 4.5,10 10,10 h 30 c 4.4,0 8,-3.6 8,-8 0,-4.4 -3.6,-8 -8,-8 z"
   class="st2" />
		</g>
		<g
   id="g24">
			<path
   style="fill:#ffffff"
   inkscape:connector-curvature="0"
   id="path22"
   d="M 48,30 C 48,23.5 44.2,18 38.6,15.5 36.9,14.7 36,16 36,17.1 v 8.5 c 0,0.8 0.7,1.4 1.5,1.4 h 3.1 c 1.5,0 1.9,1.1 0.9,2.4 l -7.7,9.8 c -1,1.2 -2.6,1.2 -3.5,0 L 22.6,29.4 C 21.6,28.2 22,27 23.5,27 h 3.1 c 0.8,0 1.5,-0.6 1.5,-1.4 v -8.5 c 0,-1.1 -1.5,-2.1 -2.8,-1.6 0,0 0,0 0,0 -4.3,2 -7.6,5.9 -8.7,10.6 C 11.7,26.9 8,31 8,36 c 0,5.5 4.5,10 10,10 h 30 c 4.4,0 8,-3.6 8,-8 0,-4.4 -3.6,-8 -8,-8 z"
   class="st3" />
		</g>
		<g
   id="g28">
			<path
   style="fill:#8c81d4"
   inkscape:connector-curvature="0"
   id="path26"
   d="m 40,9.2 c 0,0 0,-0.1 0,0 0,-0.2 0,-0.2 0,0 z"
   class="st4" />
		</g>
		<g
   id="g32">
			<path
   style="fill:#8c81d4"
   inkscape:connector-curvature="0"
   id="path30"
   d="m 24,9.1 c 0,0 0,0.1 0,0 0,-0.1 0,-0.1 0,0 z"
   class="st4" />
		</g>
	</g>
<g
   id="Layer_2">
</g>
</svg>