<?xml version="1.0" encoding="UTF-8" standalone="no"?>
<!-- Created with Inkscape (http://www.inkscape.org/) -->

<svg
   xmlns:dc="http://purl.org/dc/elements/1.1/"
   xmlns:cc="http://creativecommons.org/ns#"
   xmlns:rdf="http://www.w3.org/1999/02/22-rdf-syntax-ns#"
   xmlns:svg="http://www.w3.org/2000/svg"
   xmlns="http://www.w3.org/2000/svg"
   xmlns:sodipodi="http://sodipodi.sourceforge.net/DTD/sodipodi-0.dtd"
   xmlns:inkscape="http://www.inkscape.org/namespaces/inkscape"
   version="1.1"
   id="svg2"
   xml:space="preserve"
   width="1263.2217"
   height="627.14697"
   viewBox="0 0 1263.2218 627.14697"
   sodipodi:docname="logo.svg"
   inkscape:version="0.92.3 (2405546, 2018-03-11)"><metadata
     id="metadata8"><rdf:RDF><cc:Work
         rdf:about=""><dc:format>image/svg+xml</dc:format><dc:type
           rdf:resource="http://purl.org/dc/dcmitype/StillImage" /><dc:title></dc:title></cc:Work></rdf:RDF></metadata><defs
     id="defs6"><filter
       inkscape:collect="always"
       style="color-interpolation-filters:sRGB"
       id="filter1063"
       x="-0.017624998"
       width="1.0352499"
       y="-0.037600007"
       height="1.0752"><feGaussianBlur
         inkscape:collect="always"
         stdDeviation="6.6613084"
         id="feGaussianBlur1065" /></filter></defs><sodipodi:namedview
     pagecolor="#ffffff"
     bordercolor="#666666"
     borderopacity="1"
     objecttolerance="10"
     gridtolerance="10"
     guidetolerance="10"
     inkscape:pageopacity="0"
     inkscape:pageshadow="2"
     inkscape:window-width="1560"
     inkscape:window-height="868"
     id="namedview4"
     showgrid="false"
     inkscape:zoom="0.41258741"
     inkscape:cx="626.23691"
     inkscape:cy="633.2954"
     inkscape:window-x="67"
     inkscape:window-y="27"
     inkscape:window-maximized="0"
     inkscape:current-layer="g10" /><g
     id="g10"
     inkscape:groupmode="layer"
     inkscape:label="ink_ext_XXXXXX"
     transform="matrix(1.3333333,0,0,-1.3333333,1.4664784e-4,570.69905)"><g
       id="g1045"
       transform="translate(-369.2001,-497.24545)"
       style="opacity:0.52700034;filter:url(#filter1063)"><path
         d="m 762.05514,683.49145 c 0,-117.4128 -82.491,-212.59481 -184.249,-212.59481 -101.7574,0 -184.24881,95.18201 -184.24881,212.59481 0,117.413 82.49141,212.595 184.24881,212.595 101.758,0 184.249,-95.182 184.249,-212.595"
         style="fill:none;fill-opacity:1;fill-rule:nonzero;stroke:#000000;stroke-width:0.09999999;stroke-opacity:1"
         id="path14-3"
         inkscape:connector-curvature="0" /><path
         d="m 762.05514,683.49145 c 0,-117.4128 -82.491,-212.59481 -184.249,-212.59481 -101.7574,0 -184.24881,95.18201 -184.24881,212.59481 0,117.413 82.49141,212.595 184.24881,212.595 101.758,0 184.249,-95.182 184.249,-212.595 z"
         style="fill:#000000;fill-opacity:1;stroke:#000000;stroke-width:2.83459997;stroke-linecap:butt;stroke-linejoin:miter;stroke-miterlimit:10;stroke-dasharray:none;stroke-opacity:1"
         id="path16-6"
         inkscape:connector-curvature="0" /><path
         d="m 1300.6292,683.49145 c 0,-117.4128 -82.491,-212.59481 -184.2491,-212.59481 -101.758,0 -184.24896,95.18201 -184.24896,212.59481 0,117.413 82.49096,212.595 184.24896,212.595 101.7581,0 184.2491,-95.182 184.2491,-212.595"
         style="fill:none;fill-opacity:1;fill-rule:nonzero;stroke:#000000;stroke-width:0.09999999;stroke-opacity:1"
         id="path18-7"
         inkscape:connector-curvature="0" /><path
         d="m 1300.6292,683.49145 c 0,-117.4128 -82.491,-212.59481 -184.2491,-212.59481 -101.758,0 -184.24896,95.18201 -184.24896,212.59481 0,117.413 82.49096,212.595 184.24896,212.595 101.7581,0 184.2491,-95.182 184.2491,-212.595 z"
         style="fill:#000000;fill-opacity:1;stroke:#000000;stroke-width:2.83459997;stroke-linecap:butt;stroke-linejoin:miter;stroke-miterlimit:10;stroke-dasharray:none;stroke-opacity:1"
         id="path20-5"
         inkscape:connector-curvature="0" /><g
         id="g1021"><path
           inkscape:connector-curvature="0"
           id="path22-3"
           style="fill:none;fill-opacity:1;stroke:#000000;stroke-width:22.67679977;stroke-linecap:butt;stroke-linejoin:miter;stroke-miterlimit:10;stroke-dasharray:none;stroke-opacity:1"
           d="m 742.49214,782.30245 c 70.864,42.52 138.338,42.52 178.348,18.514" /><path
           inkscape:connector-curvature="0"
           id="path24-5"
           style="fill:none;fill-opacity:1;fill-rule:evenodd;stroke:#000000;stroke-width:0.09999999;stroke-opacity:1"
           d="m 929.95414,795.34745 -15.799,1.215 6.685,4.254 0.607,7.899" /><path
           inkscape:connector-curvature="0"
           id="path26-6"
           style="fill:none;fill-opacity:1;stroke:#000000;stroke-width:22.67679977;stroke-linecap:butt;stroke-linejoin:miter;stroke-miterlimit:10;stroke-dasharray:none;stroke-opacity:1"
           d="m 929.95414,795.34745 -15.799,1.215 6.685,4.254 0.607,7.899 z" /><path
           inkscape:connector-curvature="0"
           id="path28-2"
           style="fill:#000000;fill-opacity:1;fill-rule:nonzero;stroke:#090909;stroke-width:0.09999999;stroke-opacity:1"
           d="m 452.61554,644.20545 c -1.8016,0.029 -3.3137,0.647 -4.5359,1.852 -1.2219,1.207 -1.8332,2.665 -1.8332,4.374 0,3.053 0.1441,7.633 0.4328,13.739 0.2906,6.109 0.4363,10.689 0.4363,13.742 0,3.388 -0.0684,8.472 -0.2055,15.25 -0.1367,6.778 -0.2051,11.863 -0.2051,15.253 0,1.679 0.809,3.35 2.427,5.012 1.6207,1.665 3.3477,2.497 5.1812,2.497 1.0071,0 3.543,-0.946 7.6083,-2.838 4.7347,-2.261 7.5457,-3.528 8.43319,-3.802 8.95151,-2.901 16.59021,-7.389 22.91651,-13.464 7.546,-7.238 11.319,-15.237 11.319,-23.998 0,-5.282 -1.298,-10.305 -3.894,-15.07 -2.599,-4.854 -6.159,-8.747 -10.68101,-11.678 -5.07229,-3.297 -12.20619,-4.946 -21.4023,-4.946 -2.23169,0 -4.79849,0.32 -7.69969,0.96 -3.5152,0.795 -6.2812,1.834 -8.2976,3.117 m 25.75779,47.01 c -2.9625,1.855 -9.318,4.773 -19.06639,8.752 v -45.121 c 1.193,-0.761 2.5605,-1.331 4.1031,-1.713 1.5422,-0.379 3.261,-0.568 5.15509,-0.568 6.6,0 11.33591,0.912 14.20821,2.735 2.7207,1.731 4.8828,4.085 6.4863,7.062 1.6035,2.98 2.40549,6.08 2.40549,9.299 0,7.536 -4.43049,14.054 -13.2918,19.554" /><path
           inkscape:connector-curvature="0"
           id="path30-9"
           style="fill:#000000;fill-opacity:1;fill-rule:nonzero;stroke:#090909;stroke-width:0.09999999;stroke-opacity:1"
           d="m 553.16214,642.00545 c -1.405,0 -3.636,1.36 -6.692,4.081 -2.81,-1.344 -5.285,-2.36 -7.425,-3.047 -2.138,-0.689 -3.957,-1.034 -5.455,-1.034 -7.363,0 -12.886,1.974 -16.57,5.922 -3.681,3.947 -5.522,9.854 -5.522,17.72 0,7.375 2.72,13.687 8.158,18.935 5.439,5.251 11.948,7.876 19.525,7.876 2.904,0 6.265,-0.818 10.084,-2.453 4.614,-1.97 6.922,-4.258 6.922,-6.864 0,-1.092 -0.351,-2.047 -1.052,-2.864 -0.306,-1.212 -0.543,-2.735 -0.711,-4.568 -0.169,-1.834 -0.254,-3.977 -0.254,-6.432 0,-5.788 0.414,-9.954 1.24,-12.499 0.09,-0.274 0.793,-1.849 2.108,-4.726 1.191,-2.606 1.786,-4.091 1.786,-4.455 0,-1.606 -0.62,-2.94 -1.859,-4 -1.237,-1.061 -2.665,-1.592 -4.283,-1.592 m -11.367,30.979 c 0,0.973 0.069,2.09 0.206,3.352 0.139,1.264 0.346,2.672 0.619,4.224 -0.61,0.305 -1.153,0.526 -1.627,0.664 -0.472,0.136 -0.877,0.205 -1.214,0.205 -4.155,0 -7.792,-1.621 -10.908,-4.862 -3.117,-3.242 -4.675,-6.993 -4.675,-11.253 0,-4.078 0.733,-7.144 2.2,-9.2 1.466,-2.053 3.666,-3.08 6.6,-3.08 1.894,0 3.69,0.312 5.386,0.935 1.696,0.624 3.293,1.544 4.788,2.761 -0.916,7.245 -1.375,12.663 -1.375,16.254" /><path
           inkscape:connector-curvature="0"
           id="path32-1"
           style="fill:#000000;fill-opacity:1;fill-rule:nonzero;stroke:#090909;stroke-width:0.09999999;stroke-opacity:1"
           d="m 600.46814,690.69845 c 0.398,10.374 0.872,17.537 1.422,21.49 0.519,3.586 2.505,5.379 5.959,5.379 1.801,0 3.252,-0.585 4.352,-1.756 1.1,-1.171 1.65,-2.605 1.65,-4.301 0,-4.471 -0.343,-11.13 -1.031,-19.976 -0.686,-8.846 -1.03,-15.505 -1.03,-19.976 0,-10.912 0.352,-18.217 1.056,-21.915 0.091,-0.494 0.136,-0.941 0.136,-1.343 0,-1.696 -0.611,-3.09 -1.833,-4.183 -1.223,-1.095 -2.643,-1.643 -4.261,-1.643 -2.261,0 -3.942,1.009 -5.042,3.025 -2.077,-1.254 -4.232,-2.071 -6.464,-2.452 -2.229,-0.382 -4.535,-0.573 -6.919,-0.573 -6.844,0 -12.528,2.187 -17.05,6.56 -4.615,4.466 -6.922,10.155 -6.922,17.068 0,8.228 2.322,14.873 6.966,19.936 4.645,5.062 10.709,7.593 18.194,7.593 2.293,0 4.34,-0.244 6.142,-0.733 1.804,-0.489 3.362,-1.222 4.675,-2.2 m -0.917,-14.531 c -1.007,1.926 -2.321,3.362 -3.941,4.308 -1.619,0.949 -3.544,1.423 -5.775,1.423 -4.523,0 -7.914,-1.306 -10.175,-3.92 -2.261,-2.613 -3.392,-6.532 -3.392,-11.758 0,-3.3 1.222,-6.127 3.667,-8.481 2.444,-2.355 5.285,-3.531 8.525,-3.531 2.353,0 4.142,0.275 5.364,0.825 0.823,0.366 2.229,1.344 4.216,2.933 0.519,0.428 1.022,0.902 1.511,1.422 -0.061,1.467 -0.061,7.06 0,16.779" /><path
           inkscape:connector-curvature="0"
           id="path34-2"
           style="fill:#000000;fill-opacity:1;fill-rule:nonzero;stroke:#090909;stroke-width:0.09999999;stroke-opacity:1"
           d="m 642.16114,641.77045 c -5.654,0 -10.513,1.948 -14.575,5.845 -4.461,4.268 -6.8,9.961 -7.014,17.079 -0.216,6.783 1.634,12.83 5.547,18.139 4.644,6.26 11.106,9.39 19.385,9.39 6.112,0 10.97,-2.455 14.575,-7.366 3.239,-4.419 4.859,-9.898 4.859,-16.434 0,-7.121 -1.895,-13.196 -5.684,-18.227 -4.246,-5.617 -9.943,-8.426 -17.093,-8.426 m 2.746,38.251 c -3.757,0.029 -6.721,-1.696 -8.892,-5.174 -1.833,-2.926 -2.75,-6.345 -2.75,-10.255 0,-3.694 1.039,-6.527 3.117,-8.5 1.65,-1.569 3.575,-2.354 5.775,-2.354 2.66,0 4.967,0.909 6.922,2.725 2.23,2.124 3.422,5.004 3.575,8.638 0.397,9.915 -2.186,14.888 -7.747,14.92" /><path
           inkscape:connector-curvature="0"
           id="path36-7"
           style="fill:#000000;fill-opacity:1;fill-rule:nonzero;stroke:#090909;stroke-width:0.09999999;stroke-opacity:1"
           d="m 705.95314,678.14345 c -3.027,0 -4.845,1.226 -5.456,3.678 -1.223,0.208 -2.475,0.312 -3.759,0.312 -7.365,0 -11.047,-1.01 -11.047,-3.029 0,-1.193 2.215,-2.799 6.647,-4.818 6.05,-2.774 10.145,-4.939 12.283,-6.493 4.43,-3.203 6.644,-6.816 6.644,-10.839 0,-5.243 -2.444,-9.221 -7.333,-11.935 -3.94,-2.166 -8.783,-3.249 -14.527,-3.249 -4.065,0 -7.778,0.619 -11.139,1.856 -4.583,1.689 -6.875,4.177 -6.875,7.465 0,3.017 1.819,4.525 5.456,4.525 1.405,0 3.437,-0.431 6.094,-1.291 2.659,-0.86 4.706,-1.291 6.141,-1.291 6.204,0 9.321,1.254 9.35,3.762 0,1.562 -2.153,3.292 -6.46,5.188 -6.295,2.787 -10.328,4.793 -12.1,6.018 -4.31,3.031 -6.464,6.719 -6.464,11.065 0,6.155 3.254,10.304 9.764,12.445 3.818,1.256 9.623,1.885 17.416,1.885 3.056,0 5.317,-0.395 6.783,-1.185 2.017,-1.061 3.025,-3.019 3.025,-5.874 0,-5.463 -1.481,-8.195 -4.443,-8.195" /><path
           inkscape:connector-curvature="0"
           id="path38-0"
           style="fill:#000000;fill-opacity:1;fill-rule:nonzero;stroke:#090909;stroke-width:0.09999999;stroke-opacity:1"
           d="m 979.62214,680.81345 c -1.376,-4.955 -3.301,-12.434 -5.775,-22.436 -0.581,-3.457 -1.147,-6.898 -1.697,-10.326 -1.252,-4.343 -3.558,-6.515 -6.919,-6.515 -2.11,0 -3.775,0.718 -4.998,2.156 -1.039,1.225 -1.558,2.678 -1.558,4.359 0,4.958 1.055,11.001 3.164,18.132 3.146,10.677 4.842,16.598 5.086,17.761 0.887,4.713 1.789,9.424 2.706,14.135 1.374,6.488 2.862,10.809 4.466,12.965 1.606,2.158 3.631,3.238 6.075,3.238 2.78,0 4.827,-1.408 6.142,-4.224 1.222,-2.662 2.536,-8.111 3.942,-16.346 1.344,-7.988 3.345,-16.589 6.002,-25.802 3.483,9.093 6.72196,19.075 9.71596,29.945 l 2.567,10.564 c 1.65,4.378 4.202,6.567 7.656,6.567 3.329,0 5.804,-2.537 7.425,-7.612 0.672,-2.049 1.391,-5.87 2.156,-11.466 1.772,-13.024 4.003,-24.183 6.692,-33.476 2.718,-9.448 4.077,-14.585 4.077,-15.411 0,-1.801 -0.718,-3.315 -2.152,-4.539 -1.345,-1.1 -2.858,-1.65 -4.54,-1.65 -3.329,0 -5.804,2.382 -7.425,7.146 l -2.566,11.084 c -1.467,5.495 -3.056,13.388 -4.767,23.68 -1.374,-4.102 -3.65,-10.546 -6.827,-19.331 l -2.75,-8.448 c -1.132,-3.337 -2.309,-6.076 -3.531,-8.217 -1.618,-2.848 -3.87896,-4.272 -6.78296,-4.272 -2.873,0 -5.073,1.699 -6.6,5.097 l -2.567,8.54 c -2.383,7.836 -4.522,16.07 -6.417,24.702" /><path
           inkscape:connector-curvature="0"
           id="path40-9"
           style="fill:#000000;fill-opacity:1;fill-rule:nonzero;stroke:#090909;stroke-width:0.09999999;stroke-opacity:1"
           d="m 1063.6121,641.77045 c -5.654,0 -10.512,1.948 -14.575,5.845 -4.461,4.268 -6.799,9.961 -7.014,17.079 -0.215,6.783 1.634,12.83 5.547,18.139 4.645,6.26 11.107,9.39 19.386,9.39 6.111,0 10.97,-2.455 14.575,-7.366 3.239,-4.419 4.858,-9.898 4.858,-16.434 0,-7.121 -1.894,-13.196 -5.683,-18.227 -4.246,-5.617 -9.944,-8.426 -17.094,-8.426 m 2.746,38.251 c -3.757,0.029 -6.72,-1.696 -8.891,-5.174 -1.834,-2.926 -2.75,-6.345 -2.75,-10.255 0,-3.694 1.039,-6.527 3.116,-8.5 1.65,-1.569 3.575,-2.354 5.775,-2.354 2.66,0 4.968,0.909 6.923,2.725 2.229,2.124 3.421,5.004 3.575,8.638 0.396,9.915 -2.187,14.888 -7.748,14.92" /><path
           inkscape:connector-curvature="0"
           id="path42-3"
           style="fill:#000000;fill-opacity:1;fill-rule:nonzero;stroke:#090909;stroke-width:0.09999999;stroke-opacity:1"
           d="m 1128.6831,690.69845 c 0.399,10.374 0.873,17.537 1.423,21.49 0.518,3.586 2.504,5.379 5.958,5.379 1.802,0 3.253,-0.585 4.353,-1.756 1.1,-1.171 1.65,-2.605 1.65,-4.301 0,-4.471 -0.344,-11.13 -1.031,-19.976 -0.687,-8.846 -1.03,-15.505 -1.03,-19.976 0,-10.912 0.352,-18.217 1.056,-21.915 0.091,-0.494 0.136,-0.941 0.136,-1.343 0,-1.696 -0.612,-3.09 -1.834,-4.183 -1.222,-1.095 -2.642,-1.643 -4.26,-1.643 -2.261,0 -3.942,1.009 -5.042,3.025 -2.077,-1.254 -4.233,-2.071 -6.464,-2.452 -2.229,-0.382 -4.536,-0.573 -6.919,-0.573 -6.844,0 -12.528,2.187 -17.05,6.56 -4.615,4.466 -6.923,10.155 -6.923,17.068 0,8.228 2.323,14.873 6.967,19.936 4.644,5.062 10.709,7.593 18.194,7.593 2.293,0 4.34,-0.244 6.141,-0.733 1.805,-0.489 3.363,-1.222 4.675,-2.2 m -0.916,-14.531 c -1.007,1.926 -2.321,3.362 -3.942,4.308 -1.618,0.949 -3.543,1.423 -5.775,1.423 -4.522,0 -7.914,-1.306 -10.175,-3.92 -2.261,-2.613 -3.391,-6.532 -3.391,-11.758 0,-3.3 1.222,-6.127 3.666,-8.481 2.445,-2.355 5.286,-3.531 8.525,-3.531 2.354,0 4.142,0.275 5.365,0.825 0.823,0.366 2.229,1.344 4.216,2.933 0.518,0.428 1.022,0.902 1.511,1.422 -0.061,1.467 -0.061,7.06 0,16.779" /><path
           inkscape:connector-curvature="0"
           id="path44-6"
           style="fill:#000000;fill-opacity:1;fill-rule:nonzero;stroke:#090909;stroke-width:0.09999999;stroke-opacity:1"
           d="m 1174.5892,642.47445 c -7.301,0 -13.274,1.741 -17.919,5.222 -5.133,3.85 -7.7,9.271 -7.7,16.265 0,7.727 2.033,14.263 6.098,19.609 4.522,5.925 10.618,8.888 18.2859,8.888 5.3161,0 9.7321,-0.853 13.2471,-2.559 4.6129,-2.259 6.919,-5.766 6.919,-10.52 0,-3.354 -1.8801,-6.327 -5.6391,-8.921 -1.7109,-1.188 -5.148,-2.926 -10.311,-5.214 l -15.447,-6.812 c 1.467,-1.643 3.2381,-2.875 5.316,-3.696 2.0781,-0.822 4.4621,-1.232 7.1501,-1.232 4.095,0 7.5639,0.827 10.4059,2.482 2.535,1.474 4.566,2.211 6.0941,2.211 3.178,0 4.767,-1.525 4.767,-4.576 0,-3.444 -2.5511,-6.254 -7.652,-8.429 -4.278,-1.812 -8.8161,-2.718 -13.615,-2.718 m -1.2351,38.955 c -2.843,0 -5.273,-0.939 -7.2899,-2.816 -2.016,-1.878 -3.636,-4.693 -4.858,-8.448 3.454,1.484 6.892,2.953 10.314,4.407 4.1239,1.846 7.408,3.555 9.852,5.13 -2.045,1.151 -4.718,1.727 -8.0181,1.727" /><path
           inkscape:connector-curvature="0"
           id="path46-0"
           style="fill:#000000;fill-opacity:1;fill-rule:nonzero;stroke:#090909;stroke-width:0.09999999;stroke-opacity:1"
           d="m 1219.2011,651.39545 c 0,-5.791 -2.109,-8.686 -6.3249,-8.686 -1.833,0 -3.3471,0.579 -4.54,1.738 -1.19,1.156 -1.785,2.648 -1.785,4.477 v 63.216 c 0,1.768 0.642,3.215 1.9249,4.342 1.2221,1.036 2.7351,1.554 4.539,1.554 1.802,0 3.2831,-0.541 4.4441,-1.624 1.161,-1.08 1.7419,-2.504 1.7419,-4.272 v -60.745" /><path
           inkscape:connector-curvature="0"
           id="path48-6"
           style="fill:#000000;fill-opacity:1;fill-rule:nonzero;stroke:#090909;stroke-width:0.09999999;stroke-opacity:1"
           d="m 1250.2372,641.77045 c -5.654,0 -10.512,1.948 -14.5751,5.845 -4.461,4.268 -6.7989,9.961 -7.014,17.079 -0.2149,6.783 1.6341,12.83 5.547,18.139 4.6451,6.26 11.1071,9.39 19.386,9.39 6.111,0 10.9701,-2.455 14.5751,-7.366 3.2389,-4.419 4.858,-9.898 4.858,-16.434 0,-7.121 -1.894,-13.196 -5.683,-18.227 -4.2461,-5.617 -9.944,-8.426 -17.094,-8.426 m 2.746,38.251 c -3.757,0.029 -6.72,-1.696 -8.8911,-5.174 -1.833,-2.926 -2.7499,-6.345 -2.7499,-10.255 0,-3.694 1.039,-6.527 3.117,-8.5 1.65,-1.569 3.574,-2.354 5.7739,-2.354 2.66,0 4.968,0.909 6.9231,2.725 2.229,2.124 3.4209,5.004 3.575,8.638 0.396,9.915 -2.186,14.888 -7.748,14.92" /><path
           inkscape:connector-curvature="0"
           id="path50-2"
           style="fill:none;fill-opacity:1;stroke:#000000;stroke-width:22.67679977;stroke-linecap:butt;stroke-linejoin:miter;stroke-miterlimit:10;stroke-dasharray:none;stroke-opacity:1"
           d="m 951.69514,584.68045 c -70.865,-42.519 -138.339,-42.519 -178.348,-18.5131" /><path
           inkscape:connector-curvature="0"
           id="path52-6"
           style="fill:none;fill-opacity:1;fill-rule:evenodd;stroke:#000000;stroke-width:0.09999999;stroke-opacity:1"
           d="m 764.23214,571.63645 15.799,-1.216 -6.684,-4.2531 -0.608,-7.8996" /><path
           inkscape:connector-curvature="0"
           id="path54-1"
           style="fill:none;fill-opacity:1;stroke:#000000;stroke-width:22.67679977;stroke-linecap:butt;stroke-linejoin:miter;stroke-miterlimit:10;stroke-dasharray:none;stroke-opacity:1"
           d="m 764.23214,571.63645 15.799,-1.216 -6.684,-4.2531 -0.608,-7.8996 z" /></g></g><path
       inkscape:connector-curvature="0"
       id="path14"
       style="fill:#e4e4e4;fill-opacity:1;fill-rule:nonzero;stroke:none;stroke-width:0.1"
       d="M 369.915,214.012 C 369.915,96.5992 287.424,1.41719 185.666,1.41719 83.9086,1.41719 1.41719,96.5992 1.41719,214.012 c 0,117.413 82.49141,212.595 184.24881,212.595 101.758,0 184.249,-95.182 184.249,-212.595" /><path
       inkscape:connector-curvature="0"
       id="path16"
       style="fill:none;stroke:#e4e4e4;stroke-width:2.83459997;stroke-linecap:butt;stroke-linejoin:miter;stroke-miterlimit:10;stroke-dasharray:none;stroke-opacity:1"
       d="M 369.915,214.012 C 369.915,96.5992 287.424,1.41719 185.666,1.41719 83.9086,1.41719 1.41719,96.5992 1.41719,214.012 c 0,117.413 82.49141,212.595 184.24881,212.595 101.758,0 184.249,-95.182 184.249,-212.595 z" /><path
       inkscape:connector-curvature="0"
       id="path18"
       style="fill:#e4e4e4;fill-opacity:1;fill-rule:nonzero;stroke:none;stroke-width:0.1"
       d="M 908.489,214.012 C 908.489,96.5992 825.998,1.41719 724.24,1.41719 c -101.758,0 -184.249,95.18201 -184.249,212.59481 0,117.413 82.491,212.595 184.249,212.595 101.758,0 184.249,-95.182 184.249,-212.595" /><path
       inkscape:connector-curvature="0"
       id="path20"
       style="fill:none;stroke:#e4e4e4;stroke-width:2.83459997;stroke-linecap:butt;stroke-linejoin:miter;stroke-miterlimit:10;stroke-dasharray:none;stroke-opacity:1"
       d="M 908.489,214.012 C 908.489,96.5992 825.998,1.41719 724.24,1.41719 c -101.758,0 -184.249,95.18201 -184.249,212.59481 0,117.413 82.491,212.595 184.249,212.595 101.758,0 184.249,-95.182 184.249,-212.595 z" /><path
       inkscape:connector-curvature="0"
       id="path22"
       style="fill:none;stroke:#076807;stroke-width:22.67679977;stroke-linecap:butt;stroke-linejoin:miter;stroke-miterlimit:10;stroke-dasharray:none;stroke-opacity:1"
       d="m 350.352,312.823 c 70.864,42.52 138.338,42.52 178.348,18.514" /><path
       inkscape:connector-curvature="0"
       id="path24"
       style="fill:#076807;fill-opacity:1;fill-rule:evenodd;stroke:none;stroke-width:0.1"
       d="m 537.814,325.868 -15.799,1.215 6.685,4.254 0.607,7.899" /><path
       inkscape:connector-curvature="0"
       id="path26"
       style="fill:none;stroke:#076807;stroke-width:22.67679977;stroke-linecap:butt;stroke-linejoin:miter;stroke-miterlimit:10;stroke-dasharray:none;stroke-opacity:1"
       d="m 537.814,325.868 -15.799,1.215 6.685,4.254 0.607,7.899 z" /><path
       inkscape:connector-curvature="0"
       id="path28"
       style="fill:#076807;fill-opacity:1;fill-rule:nonzero;stroke:none;stroke-width:0.1"
       d="m 60.4754,174.726 c -1.8016,0.029 -3.3137,0.647 -4.5359,1.852 -1.2219,1.207 -1.8332,2.665 -1.8332,4.374 0,3.053 0.1441,7.633 0.4328,13.739 0.2906,6.109 0.4363,10.689 0.4363,13.742 0,3.388 -0.0684,8.472 -0.2055,15.25 -0.1367,6.778 -0.2051,11.863 -0.2051,15.253 0,1.679 0.809,3.35 2.427,5.012 1.6207,1.665 3.3477,2.497 5.1812,2.497 1.0071,0 3.543,-0.946 7.6083,-2.838 4.7347,-2.261 7.5457,-3.528 8.4332,-3.802 8.9515,-2.901 16.5902,-7.389 22.9165,-13.464 7.546,-7.238 11.319,-15.237 11.319,-23.998 0,-5.282 -1.298,-10.305 -3.894,-15.07 -2.599,-4.854 -6.159,-8.747 -10.681,-11.678 -5.0723,-3.297 -12.2062,-4.946 -21.4023,-4.946 -2.2317,0 -4.7985,0.32 -7.6997,0.96 -3.5152,0.795 -6.2812,1.834 -8.2976,3.117 m 25.7578,47.01 c -2.9625,1.855 -9.318,4.773 -19.0664,8.752 v -45.121 c 1.193,-0.761 2.5605,-1.331 4.1031,-1.713 1.5422,-0.379 3.261,-0.568 5.1551,-0.568 6.6,0 11.3359,0.912 14.2082,2.735 2.7207,1.731 4.8828,4.085 6.4863,7.062 1.6035,2.98 2.4055,6.08 2.4055,9.299 0,7.536 -4.4305,14.054 -13.2918,19.554" /><path
       inkscape:connector-curvature="0"
       id="path30"
       style="fill:#076807;fill-opacity:1;fill-rule:nonzero;stroke:none;stroke-width:0.1"
       d="m 161.022,172.526 c -1.405,0 -3.636,1.36 -6.692,4.081 -2.81,-1.344 -5.285,-2.36 -7.425,-3.047 -2.138,-0.689 -3.957,-1.034 -5.455,-1.034 -7.363,0 -12.886,1.974 -16.57,5.922 -3.681,3.947 -5.522,9.854 -5.522,17.72 0,7.375 2.72,13.687 8.158,18.935 5.439,5.251 11.948,7.876 19.525,7.876 2.904,0 6.265,-0.818 10.084,-2.453 4.614,-1.97 6.922,-4.258 6.922,-6.864 0,-1.092 -0.351,-2.047 -1.052,-2.864 -0.306,-1.212 -0.543,-2.735 -0.711,-4.568 -0.169,-1.834 -0.254,-3.977 -0.254,-6.432 0,-5.788 0.414,-9.954 1.24,-12.499 0.09,-0.274 0.793,-1.849 2.108,-4.726 1.191,-2.606 1.786,-4.091 1.786,-4.455 0,-1.606 -0.62,-2.94 -1.859,-4 -1.237,-1.061 -2.665,-1.592 -4.283,-1.592 m -11.367,30.979 c 0,0.973 0.069,2.09 0.206,3.352 0.139,1.264 0.346,2.672 0.619,4.224 -0.61,0.305 -1.153,0.526 -1.627,0.664 -0.472,0.136 -0.877,0.205 -1.214,0.205 -4.155,0 -7.792,-1.621 -10.908,-4.862 -3.117,-3.242 -4.675,-6.993 -4.675,-11.253 0,-4.078 0.733,-7.144 2.2,-9.2 1.466,-2.053 3.666,-3.08 6.6,-3.08 1.894,0 3.69,0.312 5.386,0.935 1.696,0.624 3.293,1.544 4.788,2.761 -0.916,7.245 -1.375,12.663 -1.375,16.254" /><path
       inkscape:connector-curvature="0"
       id="path32"
       style="fill:#076807;fill-opacity:1;fill-rule:nonzero;stroke:none;stroke-width:0.1"
       d="m 208.328,221.219 c 0.398,10.374 0.872,17.537 1.422,21.49 0.519,3.586 2.505,5.379 5.959,5.379 1.801,0 3.252,-0.585 4.352,-1.756 1.1,-1.171 1.65,-2.605 1.65,-4.301 0,-4.471 -0.343,-11.13 -1.031,-19.976 -0.686,-8.846 -1.03,-15.505 -1.03,-19.976 0,-10.912 0.352,-18.217 1.056,-21.915 0.091,-0.494 0.136,-0.941 0.136,-1.343 0,-1.696 -0.611,-3.09 -1.833,-4.183 -1.223,-1.095 -2.643,-1.643 -4.261,-1.643 -2.261,0 -3.942,1.009 -5.042,3.025 -2.077,-1.254 -4.232,-2.071 -6.464,-2.452 -2.229,-0.382 -4.535,-0.573 -6.919,-0.573 -6.844,0 -12.528,2.187 -17.05,6.56 -4.615,4.466 -6.922,10.155 -6.922,17.068 0,8.228 2.322,14.873 6.966,19.936 4.645,5.062 10.709,7.593 18.194,7.593 2.293,0 4.34,-0.244 6.142,-0.733 1.804,-0.489 3.362,-1.222 4.675,-2.2 m -0.917,-14.531 c -1.007,1.926 -2.321,3.362 -3.941,4.308 -1.619,0.949 -3.544,1.423 -5.775,1.423 -4.523,0 -7.914,-1.306 -10.175,-3.92 -2.261,-2.613 -3.392,-6.532 -3.392,-11.758 0,-3.3 1.222,-6.127 3.667,-8.481 2.444,-2.355 5.285,-3.531 8.525,-3.531 2.353,0 4.142,0.275 5.364,0.825 0.823,0.366 2.229,1.344 4.216,2.933 0.519,0.428 1.022,0.902 1.511,1.422 -0.061,1.467 -0.061,7.06 0,16.779" /><path
       inkscape:connector-curvature="0"
       id="path34"
       style="fill:#076807;fill-opacity:1;fill-rule:nonzero;stroke:none;stroke-width:0.1"
       d="m 250.021,172.291 c -5.654,0 -10.513,1.948 -14.575,5.845 -4.461,4.268 -6.8,9.961 -7.014,17.079 -0.216,6.783 1.634,12.83 5.547,18.139 4.644,6.26 11.106,9.39 19.385,9.39 6.112,0 10.97,-2.455 14.575,-7.366 3.239,-4.419 4.859,-9.898 4.859,-16.434 0,-7.121 -1.895,-13.196 -5.684,-18.227 -4.246,-5.617 -9.943,-8.426 -17.093,-8.426 m 2.746,38.251 c -3.757,0.029 -6.721,-1.696 -8.892,-5.174 -1.833,-2.926 -2.75,-6.345 -2.75,-10.255 0,-3.694 1.039,-6.527 3.117,-8.5 1.65,-1.569 3.575,-2.354 5.775,-2.354 2.66,0 4.967,0.909 6.922,2.725 2.23,2.124 3.422,5.004 3.575,8.638 0.397,9.915 -2.186,14.888 -7.747,14.92" /><path
       inkscape:connector-curvature="0"
       id="path36"
       style="fill:#076807;fill-opacity:1;fill-rule:nonzero;stroke:none;stroke-width:0.1"
       d="m 313.813,208.664 c -3.027,0 -4.845,1.226 -5.456,3.678 -1.223,0.208 -2.475,0.312 -3.759,0.312 -7.365,0 -11.047,-1.01 -11.047,-3.029 0,-1.193 2.215,-2.799 6.647,-4.818 6.05,-2.774 10.145,-4.939 12.283,-6.493 4.43,-3.203 6.644,-6.816 6.644,-10.839 0,-5.243 -2.444,-9.221 -7.333,-11.935 -3.94,-2.166 -8.783,-3.249 -14.527,-3.249 -4.065,0 -7.778,0.619 -11.139,1.856 -4.583,1.689 -6.875,4.177 -6.875,7.465 0,3.017 1.819,4.525 5.456,4.525 1.405,0 3.437,-0.431 6.094,-1.291 2.659,-0.86 4.706,-1.291 6.141,-1.291 6.204,0 9.321,1.254 9.35,3.762 0,1.562 -2.153,3.292 -6.46,5.188 -6.295,2.787 -10.328,4.793 -12.1,6.018 -4.31,3.031 -6.464,6.719 -6.464,11.065 0,6.155 3.254,10.304 9.764,12.445 3.818,1.256 9.623,1.885 17.416,1.885 3.056,0 5.317,-0.395 6.783,-1.185 2.017,-1.061 3.025,-3.019 3.025,-5.874 0,-5.463 -1.481,-8.195 -4.443,-8.195" /><path
       inkscape:connector-curvature="0"
       id="path38"
       style="fill:#076807;fill-opacity:1;fill-rule:nonzero;stroke:none;stroke-width:0.1"
       d="m 587.482,211.334 c -1.376,-4.955 -3.301,-12.434 -5.775,-22.436 -0.581,-3.457 -1.147,-6.898 -1.697,-10.326 -1.252,-4.343 -3.558,-6.515 -6.919,-6.515 -2.11,0 -3.775,0.718 -4.998,2.156 -1.039,1.225 -1.558,2.678 -1.558,4.359 0,4.958 1.055,11.001 3.164,18.132 3.146,10.677 4.842,16.598 5.086,17.761 0.887,4.713 1.789,9.424 2.706,14.135 1.374,6.488 2.862,10.809 4.466,12.965 1.606,2.158 3.631,3.238 6.075,3.238 2.78,0 4.827,-1.408 6.142,-4.224 1.222,-2.662 2.536,-8.111 3.942,-16.346 1.344,-7.988 3.345,-16.589 6.002,-25.802 3.483,9.093 6.722,19.075 9.716,29.945 l 2.567,10.564 c 1.65,4.378 4.202,6.567 7.656,6.567 3.329,0 5.804,-2.537 7.425,-7.612 0.672,-2.049 1.391,-5.87 2.156,-11.466 1.772,-13.024 4.003,-24.183 6.692,-33.476 2.718,-9.448 4.077,-14.585 4.077,-15.411 0,-1.801 -0.718,-3.315 -2.152,-4.539 -1.345,-1.1 -2.858,-1.65 -4.54,-1.65 -3.329,0 -5.804,2.382 -7.425,7.146 l -2.566,11.084 c -1.467,5.495 -3.056,13.388 -4.767,23.68 -1.374,-4.102 -3.65,-10.546 -6.827,-19.331 l -2.75,-8.448 c -1.132,-3.337 -2.309,-6.076 -3.531,-8.217 -1.618,-2.848 -3.879,-4.272 -6.783,-4.272 -2.873,0 -5.073,1.699 -6.6,5.097 l -2.567,8.54 c -2.383,7.836 -4.522,16.07 -6.417,24.702" /><path
       inkscape:connector-curvature="0"
       id="path40"
       style="fill:#076807;fill-opacity:1;fill-rule:nonzero;stroke:none;stroke-width:0.1"
       d="m 671.472,172.291 c -5.654,0 -10.512,1.948 -14.575,5.845 -4.461,4.268 -6.799,9.961 -7.014,17.079 -0.215,6.783 1.634,12.83 5.547,18.139 4.645,6.26 11.107,9.39 19.386,9.39 6.111,0 10.97,-2.455 14.575,-7.366 3.239,-4.419 4.858,-9.898 4.858,-16.434 0,-7.121 -1.894,-13.196 -5.683,-18.227 -4.246,-5.617 -9.944,-8.426 -17.094,-8.426 m 2.746,38.251 c -3.757,0.029 -6.72,-1.696 -8.891,-5.174 -1.834,-2.926 -2.75,-6.345 -2.75,-10.255 0,-3.694 1.039,-6.527 3.116,-8.5 1.65,-1.569 3.575,-2.354 5.775,-2.354 2.66,0 4.968,0.909 6.923,2.725 2.229,2.124 3.421,5.004 3.575,8.638 0.396,9.915 -2.187,14.888 -7.748,14.92" /><path
       inkscape:connector-curvature="0"
       id="path42"
       style="fill:#076807;fill-opacity:1;fill-rule:nonzero;stroke:none;stroke-width:0.1"
       d="m 736.543,221.219 c 0.399,10.374 0.873,17.537 1.423,21.49 0.518,3.586 2.504,5.379 5.958,5.379 1.802,0 3.253,-0.585 4.353,-1.756 1.1,-1.171 1.65,-2.605 1.65,-4.301 0,-4.471 -0.344,-11.13 -1.031,-19.976 -0.687,-8.846 -1.03,-15.505 -1.03,-19.976 0,-10.912 0.352,-18.217 1.056,-21.915 0.091,-0.494 0.136,-0.941 0.136,-1.343 0,-1.696 -0.612,-3.09 -1.834,-4.183 -1.222,-1.095 -2.642,-1.643 -4.26,-1.643 -2.261,0 -3.942,1.009 -5.042,3.025 -2.077,-1.254 -4.233,-2.071 -6.464,-2.452 -2.229,-0.382 -4.536,-0.573 -6.919,-0.573 -6.844,0 -12.528,2.187 -17.05,6.56 -4.615,4.466 -6.923,10.155 -6.923,17.068 0,8.228 2.323,14.873 6.967,19.936 4.644,5.062 10.709,7.593 18.194,7.593 2.293,0 4.34,-0.244 6.141,-0.733 1.805,-0.489 3.363,-1.222 4.675,-2.2 m -0.916,-14.531 c -1.007,1.926 -2.321,3.362 -3.942,4.308 -1.618,0.949 -3.543,1.423 -5.775,1.423 -4.522,0 -7.914,-1.306 -10.175,-3.92 -2.261,-2.613 -3.391,-6.532 -3.391,-11.758 0,-3.3 1.222,-6.127 3.666,-8.481 2.445,-2.355 5.286,-3.531 8.525,-3.531 2.354,0 4.142,0.275 5.365,0.825 0.823,0.366 2.229,1.344 4.216,2.933 0.518,0.428 1.022,0.902 1.511,1.422 -0.061,1.467 -0.061,7.06 0,16.779" /><path
       inkscape:connector-curvature="0"
       id="path44"
       style="fill:#076807;fill-opacity:1;fill-rule:nonzero;stroke:none;stroke-width:0.1"
       d="m 782.449,172.995 c -7.301,0 -13.274,1.741 -17.919,5.222 -5.133,3.85 -7.7,9.271 -7.7,16.265 0,7.727 2.033,14.263 6.098,19.609 4.522,5.925 10.618,8.888 18.286,8.888 5.316,0 9.732,-0.853 13.247,-2.559 4.613,-2.259 6.919,-5.766 6.919,-10.52 0,-3.354 -1.88,-6.327 -5.639,-8.921 -1.711,-1.188 -5.148,-2.926 -10.311,-5.214 l -15.447,-6.812 c 1.467,-1.643 3.238,-2.875 5.316,-3.696 2.078,-0.822 4.462,-1.232 7.15,-1.232 4.095,0 7.564,0.827 10.406,2.482 2.535,1.474 4.566,2.211 6.094,2.211 3.178,0 4.767,-1.525 4.767,-4.576 0,-3.444 -2.551,-6.254 -7.652,-8.429 -4.278,-1.812 -8.816,-2.718 -13.615,-2.718 m -1.235,38.955 c -2.843,0 -5.273,-0.939 -7.29,-2.816 -2.016,-1.878 -3.636,-4.693 -4.858,-8.448 3.454,1.484 6.892,2.953 10.314,4.407 4.124,1.846 7.408,3.555 9.852,5.13 -2.045,1.151 -4.718,1.727 -8.018,1.727" /><path
       inkscape:connector-curvature="0"
       id="path46"
       style="fill:#076807;fill-opacity:1;fill-rule:nonzero;stroke:none;stroke-width:0.1"
       d="m 827.061,181.916 c 0,-5.791 -2.109,-8.686 -6.325,-8.686 -1.833,0 -3.347,0.579 -4.54,1.738 -1.19,1.156 -1.785,2.648 -1.785,4.477 v 63.216 c 0,1.768 0.642,3.215 1.925,4.342 1.222,1.036 2.735,1.554 4.539,1.554 1.802,0 3.283,-0.541 4.444,-1.624 1.161,-1.08 1.742,-2.504 1.742,-4.272 v -60.745" /><path
       inkscape:connector-curvature="0"
       id="path48"
       style="fill:#076807;fill-opacity:1;fill-rule:nonzero;stroke:none;stroke-width:0.1"
       d="m 858.097,172.291 c -5.654,0 -10.512,1.948 -14.575,5.845 -4.461,4.268 -6.799,9.961 -7.014,17.079 -0.215,6.783 1.634,12.83 5.547,18.139 4.645,6.26 11.107,9.39 19.386,9.39 6.111,0 10.97,-2.455 14.575,-7.366 3.239,-4.419 4.858,-9.898 4.858,-16.434 0,-7.121 -1.894,-13.196 -5.683,-18.227 -4.246,-5.617 -9.944,-8.426 -17.094,-8.426 m 2.746,38.251 c -3.757,0.029 -6.72,-1.696 -8.891,-5.174 -1.833,-2.926 -2.75,-6.345 -2.75,-10.255 0,-3.694 1.039,-6.527 3.117,-8.5 1.65,-1.569 3.574,-2.354 5.774,-2.354 2.66,0 4.968,0.909 6.923,2.725 2.229,2.124 3.421,5.004 3.575,8.638 0.396,9.915 -2.186,14.888 -7.748,14.92" /><path
       inkscape:connector-curvature="0"
       id="path50"
       style="fill:none;stroke:#076807;stroke-width:22.67679977;stroke-linecap:butt;stroke-linejoin:miter;stroke-miterlimit:10;stroke-dasharray:none;stroke-opacity:1"
       d="M 559.555,115.201 C 488.69,72.682 421.216,72.682 381.207,96.6879" /><path
       inkscape:connector-curvature="0"
       id="path52"
       style="fill:#076807;fill-opacity:1;fill-rule:evenodd;stroke:none;stroke-width:0.1"
       d="m 372.092,102.157 15.799,-1.216 -6.684,-4.2531 -0.608,-7.8996" /><path
       inkscape:connector-curvature="0"
       id="path54"
       style="fill:none;stroke:#076807;stroke-width:22.67679977;stroke-linecap:butt;stroke-linejoin:miter;stroke-miterlimit:10;stroke-dasharray:none;stroke-opacity:1"
       d="m 372.092,102.157 15.799,-1.216 -6.684,-4.2531 -0.608,-7.8996 z" /></g></svg>