<?xml version="1.0" encoding="UTF-8" standalone="no"?>
<!-- Created with Inkscape (http://www.inkscape.org/) -->

<svg
   xmlns:dc="http://purl.org/dc/elements/1.1/"
   xmlns:cc="http://creativecommons.org/ns#"
   xmlns:rdf="http://www.w3.org/1999/02/22-rdf-syntax-ns#"
   xmlns:svg="http://www.w3.org/2000/svg"
   xmlns="http://www.w3.org/2000/svg"
   xmlns:sodipodi="http://sodipodi.sourceforge.net/DTD/sodipodi-0.dtd"
   xmlns:inkscape="http://www.inkscape.org/namespaces/inkscape"
   version="1.1"
   id="svg2"
   xml:space="preserve"
   width="743.12408"
   height="777.42249"
   viewBox="0 0 743.12408 777.42249"
   sodipodi:docname="man-desktop-computer-publicdomainvectors.org.svg"
   inkscape:version="0.92.3 (2405546, 2018-03-11)"><metadata
     id="metadata8"><rdf:RDF><cc:Work
         rdf:about=""><dc:format>image/svg+xml</dc:format><dc:type
           rdf:resource="http://purl.org/dc/dcmitype/StillImage" /><dc:title></dc:title></cc:Work></rdf:RDF></metadata><defs
     id="defs6"><clipPath
       clipPathUnits="userSpaceOnUse"
       id="clipPath18"><path
         d="M 0,660 H 660 V 0 H 0 Z"
         id="path16"
         inkscape:connector-curvature="0" /></clipPath></defs><sodipodi:namedview
     pagecolor="#ffffff"
     bordercolor="#666666"
     borderopacity="1"
     objecttolerance="10"
     gridtolerance="10"
     guidetolerance="10"
     inkscape:pageopacity="0"
     inkscape:pageshadow="2"
     inkscape:window-width="1853"
     inkscape:window-height="1025"
     id="namedview4"
     showgrid="false"
     inkscape:zoom="0.75853273"
     inkscape:cx="219.49792"
     inkscape:cy="326.1797"
     inkscape:window-x="1987"
     inkscape:window-y="27"
     inkscape:window-maximized="1"
     inkscape:current-layer="g10" /><g
     id="g10"
     inkscape:groupmode="layer"
     inkscape:label="man-desktop-computer-publicdomainvectors.org"
     transform="matrix(1.3333333,0,0,-1.3333333,-72.03753,877.49731)"><path
       d="m 288.035,584.769 c 10.088,0 18.317,13.198 18.317,29.378 0,16.182 -8.229,29.378 -18.317,29.378 -10.091,0 -18.321,-13.196 -18.321,-29.378 0,-16.18 8.23,-29.378 18.321,-29.378"
       style="fill:#332d2a;fill-opacity:1;fill-rule:evenodd;stroke:none"
       id="path70"
       inkscape:connector-curvature="0" /><path
       d="m 147.676,549.993 c 53.549,0 106.778,-55.612 118.892,-124.214 12.115,-68.602 -21.477,-124.213 -75.025,-124.213 -53.549,0 -106.778,55.611 -118.892,124.213 -12.113,68.602 21.476,124.214 75.025,124.214"
       style="fill:#332d2a;fill-opacity:1;fill-rule:evenodd;stroke:none"
       id="path72"
       inkscape:connector-curvature="0" /><path
       d="m 275.411,554.101 c 68.601,-5.689 110.652,-77.79 93.926,-161.046 C 352.606,309.8 283.433,246.921 214.831,252.609 146.229,258.298 104.178,330.4 120.907,413.656 137.635,496.91 206.809,559.79 275.411,554.101"
       style="fill:#cc3300;fill-opacity:1;fill-rule:evenodd;stroke:none"
       id="path74"
       inkscape:connector-curvature="0" /><path
       d="M 278.255,371.034 C 429.164,410.29 575.877,379.685 605.946,302.675 636.016,225.666 538.057,131.417 387.146,92.159 236.235,52.906 89.523,83.511 59.453,160.521 29.384,237.529 127.344,331.78 278.255,371.034"
       style="fill:#a89a8c;fill-opacity:1;fill-rule:evenodd;stroke:none"
       id="path76"
       inkscape:connector-curvature="0" /><path
       d="m 220.189,239.435 192.247,94.938 c 7.218,3.563 14.529,1.355 21.545,-2.593 L 534.07,275.458 c 3.271,-1.842 4.247,-5.802 3.865,-9.536 -0.384,-3.736 -2.417,-6.773 -5.724,-8.55 L 333.82,150.728 c -8.029,-4.317 -16.486,-1.461 -23.863,3.895 l -92.91,67.447 c -2.908,2.111 -3.441,5.938 -2.801,9.474 0.639,3.534 2.722,6.3 5.943,7.891"
       style="fill:#4d4441;fill-opacity:1;fill-rule:evenodd;stroke:none"
       id="path78"
       inkscape:connector-curvature="0" /><path
       d="m 275.253,195.158 41.998,-30.488 c 2.694,-1.956 8.614,-4.617 14.673,-0.707 l 182.054,97.713 c 1.891,1.016 2.969,2.893 2.891,5.039 -0.077,2.145 -1.289,3.94 -3.249,4.815 l -45.851,20.481 c -2.583,1.453 -6.919,3.777 -9.957,2.278 L 276.047,204.528 c -1.774,-0.875 -2.874,-2.488 -3.04,-4.459 -0.169,-1.972 0.644,-3.747 2.246,-4.911"
       style="fill:#332d2a;fill-opacity:1;fill-rule:evenodd;stroke:none"
       id="path80"
       inkscape:connector-curvature="0" /><path
       d="m 333.82,150.728 48.027,94.037 c 6.265,12.27 14.929,21.038 26.911,27.837 l 176.073,99.889 c 6.88,3.903 9.903,-1.719 5.846,-10.262 l -40.69,-85.642 c -4.009,-8.441 -9.547,-14.789 -17.776,-19.215 z"
       style="fill:#7d6f6a;fill-opacity:1;fill-rule:evenodd;stroke:none"
       id="path82"
       inkscape:connector-curvature="0" /><path
       d="m 316.613,258.077 19.759,-14.347 c 1.27,-0.919 4.055,-2.173 6.905,-0.333 l 46.787,22.533 c 1.935,0.932 1.685,3.48 -0.168,4.636 l -21.975,13.694 c -1.216,0.685 -4.157,0.526 -5.588,-0.181 l -45.347,-21.594 c -0.84,-0.4 -1.353,-1.172 -1.431,-2.099 -0.079,-0.928 0.302,-1.763 1.058,-2.309"
       style="fill:#332d2a;fill-opacity:1;fill-rule:evenodd;stroke:none"
       id="path84"
       inkscape:connector-curvature="0" /><path
       d="m 256.595,268.252 c 14.929,2.269 27.033,-2.992 27.033,-11.752 0,-8.76 -12.104,-17.702 -27.033,-19.972 -14.929,-2.268 -27.032,2.992 -27.032,11.754 0,8.76 12.103,17.7 27.032,19.97"
       style="fill:#f29d72;fill-opacity:1;fill-rule:evenodd;stroke:none"
       id="path86"
       inkscape:connector-curvature="0" /><path
       d="m 214.664,542.001 c -263.713,-72.362 -162.03,-357.806 19.15,-302.652 13.482,4.104 17.192,19.524 9.54,22.89 -85.077,37.452 -126.059,77.252 -108.206,188.564 11.12,25.125 37.163,67.124 79.516,91.198"
       style="fill:#cc3300;fill-opacity:1;fill-rule:evenodd;stroke:none"
       id="path88"
       inkscape:connector-curvature="0" /><path
       d="m 294.273,544.572 c 10.959,-4.757 17.733,-12.528 17.733,-22.203 0,-19.448 -27.353,-39.225 -61.094,-44.174 -33.741,-4.949 -61.093,6.805 -61.093,26.253 0,11.349 9.317,22.81 23.782,31.371 9.429,5.58 15.37,14.061 17.393,24.829 l 6.162,32.799 45.576,-4.468 -2.704,-18.924 c -1.554,-10.888 4.155,-21.104 14.245,-25.483"
       style="fill:#f29d72;fill-opacity:1;fill-rule:evenodd;stroke:none"
       id="path90"
       inkscape:connector-curvature="0" /><path
       d="m 294.273,544.572 c 4.185,-1.817 7.758,-4.071 10.577,-6.705 -6.926,-7.137 -16.075,-11.393 -26.428,-11.393 -20.52,0 -39.276,16.722 -46.435,39.461 l 5.169,27.512 45.576,-4.468 -2.704,-18.924 c -1.554,-10.888 4.155,-21.104 14.245,-25.483"
       style="fill:#d97746;fill-opacity:1;fill-rule:evenodd;stroke:none"
       id="path92"
       inkscape:connector-curvature="0" /><path
       d="m 262.501,643.658 c 24.577,0 46.625,-23.98 49.248,-53.562 2.624,-29.582 -15.174,-53.562 -39.748,-53.562 -24.576,0 -46.626,23.98 -49.248,53.562 -2.623,29.582 15.173,53.562 39.748,53.562"
       style="fill:#f5b290;fill-opacity:1;fill-rule:evenodd;stroke:none"
       id="path94"
       inkscape:connector-curvature="0" /><path
       d="m 299.503,549.076 c 111.771,-10.482 169.69,-117.61 112.137,-226.845 -6.723,-12.76 -28.704,-1.949 -22.533,6.919 17.774,25.548 15.126,60.789 -16.692,85.681 1.498,51.709 -19.451,113.813 -72.912,134.245"
       style="fill:#cc3300;fill-opacity:1;fill-rule:evenodd;stroke:none"
       id="path96"
       inkscape:connector-curvature="0" /><path
       d="m 390.596,395.088 c -4.416,7.002 -10.43,13.681 -18.181,19.743 l 3.698,46.804 14.499,-66.565 z"
       style="fill:#8c2300;fill-opacity:1;fill-rule:evenodd;stroke:none"
       id="path98"
       inkscape:connector-curvature="0" /><path
       d="m 386.638,327.854 c 11.061,5.313 21.716,4.103 23.8,-2.703 2.085,-6.809 -5.192,-16.634 -16.253,-21.951 -11.062,-5.314 -21.72,-4.104 -23.803,2.702 -2.083,6.809 5.194,16.636 16.256,21.952"
       style="fill:#f29d72;fill-opacity:1;fill-rule:evenodd;stroke:none"
       id="path100"
       inkscape:connector-curvature="0" /><path
       d="m 156.083,321.227 c -6.018,23.009 -5.962,46.02 0.531,69.03 7.282,-18.89 14.562,-37.779 21.843,-56.668 v -0.014 c -7.752,-3.969 -15.211,-8.091 -22.355,-12.348 z"
       style="fill:#8c2300;fill-opacity:1;fill-rule:evenodd;stroke:none"
       id="path102"
       inkscape:connector-curvature="0" /><path
       d="m 233.243,577.249 c 10.09,0 18.319,13.198 18.319,29.378 0,16.182 -8.229,29.379 -18.319,29.379 -10.089,0 -18.32,-13.197 -18.32,-29.379 0,-16.18 8.231,-29.378 18.32,-29.378"
       style="fill:#332d2a;fill-opacity:1;fill-rule:evenodd;stroke:none"
       id="path104"
       inkscape:connector-curvature="0" /><path
       d="m 235.217,570.558 c 6.399,0 11.616,7.083 11.616,15.77 0,8.685 -5.217,15.77 -11.616,15.77 -6.398,0 -11.615,-7.085 -11.615,-15.77 0,-8.687 5.217,-15.77 11.615,-15.77"
       style="fill:#f5b290;fill-opacity:1;fill-rule:evenodd;stroke:none"
       id="path106"
       inkscape:connector-curvature="0" /><path
       d="m 270.104,611.654 c 23.071,0 41.889,10.438 41.889,23.235 0,12.796 -18.818,23.234 -41.889,23.234 -23.072,0 -41.889,-10.438 -41.889,-23.234 0,-12.797 18.817,-23.235 41.889,-23.235"
       style="fill:#332d2a;fill-opacity:1;fill-rule:evenodd;stroke:none"
       id="path108"
       inkscape:connector-curvature="0" /><path
       d="m 200.733,169.753 c 15.257,0 27.702,6.824 27.702,15.193 0,8.367 -12.445,15.191 -27.702,15.191 -15.258,0 -27.703,-6.824 -27.703,-15.191 0,-8.369 12.445,-15.193 27.703,-15.193"
       style="fill:#4d4441;fill-opacity:1;fill-rule:evenodd;stroke:none"
       id="path110"
       inkscape:connector-curvature="0" /></g></svg>